<!-- <svg xmlns="http://www.w3.org/2000/svg" viewBox="0 0 24 24" width="24" height="24" color="#000000" fill="none">
    <path d="M15.9351 12.6258C15.6807 13.8374 14.327 14.7077 11.6198 16.4481C8.67528 18.3411 7.20303 19.2876 6.01052 18.9229C5.60662 18.7994 5.23463 18.5823 4.92227 18.2876C4 17.4178 4 15.6118 4 12C4 8.38816 4 6.58224 4.92227 5.71235C5.23463 5.41773 5.60662 5.20057 6.01052 5.07707C7.20304 4.71243 8.67528 5.6589 11.6198 7.55186C14.327 9.29233 15.6807 10.1626 15.9351 11.3742C16.0216 11.7865 16.0216 12.2135 15.9351 12.6258Z" stroke="currentColor" stroke-width="1.5" stroke-linejoin="round" />
    <path d="M20 5V19" stroke="currentColor" stroke-width="1.5" stroke-linecap="round" />
</svg> -->



















<svg xmlns="http://www.w3.org/2000/svg" width="24" height="24" viewBox="0 0 24 24" fill="none" class="injected-svg" data-src="https://cdn.hugeicons.com/icons/next-stroke-standard.svg" xmlns:xlink="http://www.w3.org/1999/xlink" role="img" color="#000000">
<path d="M5.5241 19.0621C4.85783 19.4721 4 18.9928 4 18.2104V5.78956C4 5.00724 4.85783 4.52789 5.5241 4.93791L15.6161 11.1483C16.2506 11.5388 16.2506 12.4612 15.6161 12.8517L5.5241 19.0621Z" stroke="#000000" stroke-width="1.5" stroke-linejoin="round"></path>
<path d="M20 4.5L20 19.5" stroke="#000000" stroke-width="1.5" stroke-linecap="round" stroke-linejoin="round"></path>
</svg>