<!-- <svg xmlns="http://www.w3.org/2000/svg" viewBox="0 0 24 24" width="24" height="24" color="#000000" fill="none">
    <circle cx="12" cy="12" r="10" stroke="currentColor" stroke-width="1.5" />
    <path d="M9.5 11.1998V12.8002C9.5 14.3195 9.5 15.0791 9.95576 15.3862C10.4115 15.6932 11.0348 15.3535 12.2815 14.6741L13.7497 13.8738C15.2499 13.0562 16 12.6474 16 12C16 11.3526 15.2499 10.9438 13.7497 10.1262L12.2815 9.32594C11.0348 8.6465 10.4115 8.30678 9.95576 8.61382C9.5 8.92086 9.5 9.6805 9.5 11.1998Z" fill="currentColor" />
</svg>
 -->













<!-- 
<svg xmlns="http://www.w3.org/2000/svg" viewBox="0 0 24 24" width="24" height="24" fill="none" stroke="currentColor" stroke-width="8">
    <path d="M5,3 L19,12 L5,21 Z" fill="none" stroke="currentColor" stroke-linejoin="round" stroke-width="2" />
</svg>
 -->













<svg xmlns="http://www.w3.org/2000/svg" width="24" height="24" viewBox="0 0 24 24" fill="none" class="injected-svg" data-src="https://cdn.hugeicons.com/icons/play-stroke-standard.svg" xmlns:xlink="http://www.w3.org/1999/xlink" role="img" color="#000000">
<path d="M7.5241 19.0621C6.85783 19.4721 6 18.9928 6 18.2104V5.78956C6 5.00724 6.85783 4.52789 7.5241 4.93791L17.6161 11.1483C18.2506 11.5388 18.2506 12.4612 17.6161 12.8517L7.5241 19.0621Z" stroke="#000000" stroke-width="1.5" stroke-linejoin="round"></path>
</svg>
